<svg xmlns="http://www.w3.org/2000/svg" fill="#ffffff" viewBox="0 0 1000 1000"><path d="M847.3,423.5V299.5h-82.7v124.1H640.6v82.7h124.1v124.1h82.7V506.2h124.1v-82.7H847.3z M528.9,564.1L483.5,531c-16.5-12.4-33.1-28.9-33.1-57.9c0-28.9,20.7-53.8,41.4-66.2c53.8-41.4,107.5-86.8,107.5-177.8c0-86.8-53.8-136.5-82.7-161.3h70.3L636.5,10H380.1c-181.9,0-272.9,115.8-272.9,239.8c0,95.1,74.4,198.5,206.8,198.5H347c-4.1,12.4-16.5,33.1-16.5,53.8c0,41.4,16.5,57.9,37.2,82.7c-57.9,4.1-165.4,16.5-244,66.2c-74.4,45.5-95.1,107.5-95.1,153C28.6,899,115.4,990,301.5,990c223.3,0,330.8-124.1,330.8-244C632.3,659.2,586.8,613.7,528.9,564.1z M214.7,187.8c0-91,53.8-132.3,111.6-132.3c107.5,0,165.4,144.7,165.4,227.4c0,107.5-86.8,128.2-119.9,128.2C268.4,411.1,214.7,282.9,214.7,187.8z M363.5,932.1c-136.5,0-223.3-62-223.3-153c0-91,82.7-119.9,107.5-132.3c53.8-16.5,124.1-20.7,136.5-20.7s20.7,0,28.9,0c99.2,70.3,140.6,99.2,140.6,165.4C553.8,870.1,475.2,932.1,363.5,932.1z"/>
</svg>